# xmcd CD database file
#
# Track frame offsets:
#	150
#	17423
#	31397
#	54460
#	67330
#	81466
#	102619
#	122036
#	139786
#	161247
#	179534
#	196404
#	217653
#	237519
#	253488
#	269239
#	285882
#	314316
#
# Disc length: 4578 seconds
#
# Revision: 0
# Processed by: cddbd v1.5.2PL0 Copyright (c) Steve Scherf et al.
# Submitted via: CDex 1.51
#
DISCID=1a11e012
DTITLE=Kenny Burrell - The Bluesin' Around Sessions
DYEAR=1961
DGENRE=Jazz
TTITLE0=Mambo Twist (alt.)
TTITLE1=Mambo Twist
TTITLE2=The Switch
TTITLE3=Bye And Bye
TTITLE4=Funk Junction
TTITLE5=Mood Indigo
TTITLE6=The Squeeze
TTITLE7=How Could You (Do A Thing Like That To Me?)
TTITLE8=Opus 21
TTITLE9=Bluesin' Around (alt.)
TTITLE10=Bluesin' Around
TTITLE11=Gettin' In The Groove (alt.)
TTITLE12=Gettin' In The Groove
TTITLE13=One Mint Julep
TTITLE14=People Will Say We're In Love (alt.)
TTITLE15=People Will Say We're In Love
TTITLE16=Moten Swing (alt.)
TTITLE17=Moten Swing
EXTD=YEAR: 1961
EXTT0=
EXTT1=
EXTT2=
EXTT3=
EXTT4=
EXTT5=
EXTT6=
EXTT7=
EXTT8=
EXTT9=
EXTT10=
EXTT11=
EXTT12=
EXTT13=
EXTT14=
EXTT15=
EXTT16=
EXTT17=
PLAYORDER=
